<svg xmlns="http://www.w3.org/2000/svg" viewBox="0 0 64 64" fill="none" stroke="#C5612E" stroke-width="1.25" stroke-linecap="round" stroke-linejoin="round">
  <path d="M 14.99 48.07 Q 15.87 49.06 16.34 49.53 Q 16.80 50.00 17.30 50.43 Q 17.80 50.87 18.33 51.27 Q 18.85 51.67 19.40 52.03 Q 19.95 52.40 20.52 52.73 Q 21.09 53.06 21.68 53.35 Q 22.27 53.65 22.88 53.90 Q 23.48 54.15 24.10 54.37 Q 24.72 54.58 25.35 54.76 Q 25.98 54.94 26.62 55.07 Q 27.26 55.21 27.90 55.31 Q 28.55 55.40 29.19 55.46 Q 29.84 55.52 30.49 55.54 Q 31.14 55.56 31.78 55.54 Q 32.43 55.52 33.07 55.46 Q 33.72 55.40 34.35 55.31 Q 34.99 55.21 35.62 55.08 Q 36.24 54.95 36.86 54.78 Q 37.48 54.61 38.09 54.41 Q 38.69 54.21 39.29 53.97 Q 39.88 53.73 40.46 53.46 Q 41.03 53.20 41.59 52.89 Q 42.15 52.59 42.69 52.26 Q 43.24 51.93 43.76 51.57 Q 44.28 51.21 44.78 50.82 Q 45.27 50.42 45.75 50.01 Q 46.22 49.59 46.67 49.14 Q 47.12 48.70 47.54 48.22 Q 47.96 47.75 48.35 47.26 Q 48.75 46.76 49.11 46.24 Q 49.47 45.72 49.79 45.19 Q 50.12 44.65 50.41 44.09 Q 50.70 43.53 50.96 42.96 Q 51.21 42.38 51.43 41.79 Q 51.65 41.20 51.83 40.60 Q 52.01 40.00 52.15 39.39 Q 52.29 38.78 52.39 38.16 Q 52.48 37.54 52.54 36.92 Q 52.60 36.30 52.62 35.68 Q 52.63 35.06 52.61 34.44 Q 52.58 33.82 52.52 33.21 Q 52.46 32.60 52.36 31.99 Q 52.26 31.38 52.13 30.78 Q 51.99 30.19 51.82 29.60 Q 51.65 29.01 51.44 28.44 Q 51.24 27.87 51.00 27.32 Q 50.75 26.76 50.48 26.22 Q 50.21 25.68 49.91 25.17 Q 49.60 24.65 49.27 24.15 Q 48.93 23.66 48.57 23.18 Q 48.21 22.71 47.82 22.26 Q 47.43 21.82 47.02 21.40 Q 46.61 20.97 46.17 20.58 Q 45.73 20.19 45.28 19.82 Q 44.82 19.46 44.34 19.13 Q 43.87 18.79 43.37 18.49 Q 42.88 18.19 42.37 17.92 Q 41.86 17.64 41.34 17.41 Q 40.82 17.17 40.29 16.96 Q 39.76 16.76 39.21 16.59 Q 38.67 16.42 38.12 16.28 Q 37.57 16.15 37.02 16.05 Q 36.47 15.96 35.91 15.90 Q 35.36 15.84 34.80 15.81 Q 34.25 15.79 33.70 15.80 Q 33.14 15.81 32.60 15.86 Q 32.05 15.90 31.51 15.98 Q 30.97 16.06 30.45 16.18 Q 29.92 16.29 29.40 16.43 Q 28.88 16.58 28.38 16.75 Q 27.88 16.93 27.39 17.13 Q 26.90 17.34 26.43 17.57 Q 25.96 17.80 25.50 18.06 Q 25.05 18.31 24.62 18.59 Q 24.18 18.88 23.77 19.18 Q 23.36 19.48 22.97 19.81 Q 22.57 20.13 22.21 20.48 Q 21.84 20.82 21.49 21.18 Q 21.14 21.54 20.82 21.92 Q 20.50 22.30 20.20 22.69 Q 19.90 23.08 19.62 23.49 Q 19.35 23.90 19.10 24.31 Q 18.85 24.73 18.63 25.16 Q 18.41 25.59 18.21 26.03 Q 18.02 26.47 17.85 26.91 Q 17.68 27.36 17.54 27.81 Q 17.40 28.27 17.28 28.72 Q 17.17 29.18 17.08 29.64 Q 16.99 30.10 16.94 30.56 Q 16.88 31.03 16.85 31.49 Q 16.82 31.95 16.82 32.41 Q 16.82 32.87 16.85 33.33 Q 16.87 33.78 16.93 34.24 Q 16.99 34.69 17.07 35.13 Q 17.16 35.57 17.27 36.01 Q 17.38 36.44 17.52 36.87 Q 17.66 37.29 17.82 37.70 Q 17.99 38.11 18.18 38.51 Q 18.37 38.91 18.58 39.29 Q 18.80 39.67 19.03 40.03 Q 19.27 40.39 19.53 40.74 Q 19.79 41.08 20.07 41.40 Q 20.35 41.72 20.65 42.02 Q 20.95 42.32 21.27 42.59 Q 21.59 42.87 21.92 43.12 Q 22.25 43.37 22.59 43.60 Q 22.93 43.82 23.29 44.02 Q 23.64 44.22 24.00 44.40 Q 24.37 44.57 24.73 44.72 Q 25.10 44.87 25.47 44.99 Q 25.85 45.12 26.22 45.22 Q 26.59 45.32 26.97 45.40 Q 27.34 45.47 27.72 45.53 Q 28.09 45.58 28.46 45.61 Q 28.83 45.64 29.20 45.65 Q 29.57 45.67 29.93 45.66 Q 30.29 45.65 30.65 45.62 Q 31.00 45.59 31.35 45.54 Q 31.70 45.50 32.05 45.43 Q 32.39 45.37 32.72 45.29 Q 33.06 45.21 33.39 45.11 Q 33.71 45.01 34.03 44.90 Q 34.35 44.79 34.65 44.66 Q 34.96 44.53 35.26 44.39 Q 35.56 44.25 35.84 44.09 Q 36.13 43.93 36.41 43.76 Q 36.68 43.59 36.94 43.40 Q 37.21 43.22 37.46 43.02 Q 37.71 42.82 37.94 42.61 Q 38.18 42.40 38.40 42.18 Q 38.62 41.96 38.83 41.72 Q 39.03 41.49 39.22 41.24 Q 39.41 41.00 39.58 40.74 Q 39.75 40.49 39.91 40.22 Q 40.06 39.96 40.19 39.69 Q 40.33 39.42 40.44 39.14 Q 40.55 38.86 40.65 38.58 Q 40.74 38.30 40.81 38.01 Q 40.88 37.72 40.94 37.44 Q 40.99 37.15 41.02 36.86 Q 41.05 36.57 41.06 36.29 Q 41.07 36.00 41.06 35.72 Q 41.05 35.43 41.02 35.15 Q 40.99 34.88 40.94 34.60 Q 40.89 34.33 40.82 34.07 Q 40.76 33.80 40.68 33.54 Q 40.59 33.29 40.49 33.04 Q 40.39 32.79 40.28 32.56 Q 40.17 32.32 40.04 32.10 Q 39.92 31.87 39.78 31.66 Q 39.64 31.45 39.49 31.24 Q 39.34 31.04 39.19 30.86 Q 39.03 30.67 38.86 30.49 Q 38.70 30.32 38.53 30.15 Q 38.36 29.99 38.18 29.84 Q 38.00 29.69 37.82 29.55 Q 37.64 29.41 37.46 29.29 Q 37.27 29.16 37.09 29.04 Q 36.90 28.93 36.71 28.82 Q 36.52 28.72 36.33 28.63 Q 36.14 28.53 35.95 28.45 Q 35.75 28.37 35.56 28.30 Q 35.36 28.24 35.17 28.18 Q 34.97 28.12 34.78 28.07 Q 34.58 28.03 34.39 27.99 Q 34.19 27.96 34.00 27.94 Q 33.81 27.91 33.61 27.90 Q 33.42 27.89 33.23 27.89 Q 33.04 27.89 32.85 27.90 Q 32.66 27.91 32.48 27.93 Q 32.29 27.95 32.11 27.98 Q 31.93 28.01 31.75 28.05 Q 31.58 28.09 31.41 28.14 Q 31.23 28.20 31.07 28.26 Q 30.90 28.32 30.74 28.39 Q 30.58 28.46 30.42 28.54 Q 30.27 28.63 30.12 28.72 Q 29.98 28.80 29.84 28.90 Q 29.70 29.00 29.57 29.11 Q 29.44 29.21 29.32 29.32 Q 29.19 29.43 29.08 29.55 Q 28.96 29.67 28.86 29.79 Q 28.75 29.91 28.65 30.03 Q 28.56 30.16 28.47 30.29 Q 28.38 30.42 28.29 30.55 Q 28.21 30.68 28.14 30.81 Q 28.07 30.95 28.00 31.08 Q 27.94 31.22 27.88 31.36 Q 27.82 31.50 27.77 31.64 Q 27.73 31.78 27.69 31.92 Q 27.65 32.06 27.62 32.20 Q 27.58 32.34 27.56 32.48 Q 27.54 32.62 27.52 32.76 Q 27.51 32.90 27.50 33.04 Q 27.50 33.18 27.50 33.32 Q 27.50 33.46 27.51 33.59 Q 27.52 33.73 27.53 33.87 Q 27.55 34.00 27.58 34.13 Q 27.60 34.26 27.63 34.39 Q 27.67 34.52 27.70 34.65 Q 27.74 34.77 27.78 34.90 Q 27.82 35.02 27.87 35.14 Q 27.92 35.26 27.97 35.38 Q 28.02 35.50 28.07 35.61 Q 28.12 35.73 28.18 35.84 Q 28.24 35.96 28.30 36.07 Q 28.37 36.18 28.43 36.28 Q 28.50 36.39 28.57 36.50 Q 28.65 36.60 28.72 36.70 Q 28.80 36.80 28.88 36.90 Q 28.97 37.00 29.06 37.09 Q 29.14 37.18 29.24 37.27 Q 29.33 37.36 29.43 37.44 Q 29.53 37.52 29.64 37.60 Q 29.74 37.67 29.85 37.74 Q 29.96 37.81 30.08 37.87 Q 30.19 37.94 30.31 37.99 Q 30.43 38.04 30.55 38.09 Q 30.67 38.13 30.79 38.17 T 30.92 38.21"></path>
</svg>